<?xml version="1.0" encoding="UTF-8"?>
<svg version="1.1" xmlns="http://www.w3.org/2000/svg" width="1024" height="1024">

<path d="M0 0 C1.23531464 -0.00350464 2.47062927 -0.00700928 3.74337769 -0.01062012 C7.10706567 -0.01787749 10.47050524 -0.01622826 13.83417892 -0.00986195 C17.36935487 -0.00476649 20.90452086 -0.00950319 24.43969727 -0.01263428 C30.37420537 -0.01626365 36.30866355 -0.01150192 42.24316406 -0.00195312 C49.08522194 0.00892946 55.92716059 0.00540315 62.76921558 -0.00560594 C68.66419139 -0.01470823 74.55913149 -0.01594975 80.45411205 -0.0107286 C83.96593871 -0.00762502 87.47770949 -0.00715487 90.98953247 -0.01380157 C94.90713058 -0.02069956 98.82459721 -0.01111437 102.7421875 0 C103.89258514 -0.00404846 105.04298279 -0.00809692 106.22824097 -0.01226807 C120.75007382 0.06381867 133.30815721 4.15960037 144.28125 13.96582031 C151.7311714 21.74321079 156.45225392 32.34868887 156.5249939 43.13842773 C156.53359436 44.09414169 156.54219482 45.04985565 156.55105591 46.03453064 C156.55744583 47.58993309 156.55744583 47.58993309 156.56396484 49.17675781 C156.57214233 50.27826675 156.58031982 51.3797757 156.58874512 52.5146637 C156.6135466 56.15853337 156.6301044 59.80236414 156.64453125 63.44628906 C156.65251677 65.31818909 156.65251677 65.31818909 156.6606636 67.22790527 C156.68188345 72.47802902 156.70101138 77.72814699 156.712286 82.978302 C156.72848298 90.46817104 156.7615687 97.95751796 156.81868684 105.44719028 C156.86230148 111.37115955 156.87805581 117.29501467 156.88441849 123.21914673 C156.89110809 125.72600007 156.90626984 128.23284651 156.9303093 130.73959351 C157.1583439 155.96298495 157.1583439 155.96298495 151.37109375 166.25878906 C150.89457367 167.11537109 150.41805359 167.97195313 149.92709351 168.85449219 C143.35531545 180.00939248 132.84606536 186.39665817 120.59020996 189.83566284 C115.8160902 190.74596003 110.93517469 190.49859656 106.09375 190.45410156 C104.92726425 190.45127167 103.7607785 190.44844177 102.5589447 190.44552612 C98.85038799 190.43437294 95.1420769 190.40927692 91.43359375 190.38378906 C88.91211287 190.373753 86.3906282 190.36462824 83.86914062 190.35644531 C77.70304185 190.3344495 71.53708536 190.30102024 65.37109375 190.25878906 C65.41427266 192.52249017 65.49096547 194.78557082 65.58203125 197.04785156 C65.64076416 198.93818115 65.64076416 198.93818115 65.70068359 200.86669922 C66.04820497 204.35571408 66.04820497 204.35571408 68.56201172 206.31689453 C70.25796261 207.23444309 71.98439852 208.09688044 73.73046875 208.91503906 C80.39191777 212.30488886 84.81857096 219.38344543 87.37109375 226.25878906 C89.82934973 236.20730153 89.0625148 246.13966589 84.37109375 255.25878906 C78.12014658 265.50969466 68.90301645 271.29630674 57.37109375 274.25878906 C49.7370112 275.3892938 41.77235581 273.52629711 35.37109375 269.25878906 C31.57229316 269.52237931 29.66256973 271.57652029 26.99609375 274.13378906 C23.01030665 277.8332073 18.92169043 281.25418068 14.62109375 284.57128906 C9.04969428 288.88200134 3.67245626 293.37153749 -1.65258789 297.98193359 C-5.7679462 301.53924769 -9.95955543 304.97766151 -14.2265625 308.35253906 C-17.69515226 311.10485094 -21.11164642 313.91949168 -24.53515625 316.72753906 C-27.43117583 319.09700963 -30.33476873 321.45676541 -33.2409668 323.8137207 C-41.78429474 330.7426757 -50.28084419 337.72701363 -58.76757812 344.72509766 C-66.39128449 351.00685571 -74.05804407 357.23558349 -81.72680664 363.4621582 C-85.53355661 366.55370334 -89.33546587 369.6509102 -93.12890625 372.75878906 C-100.9758029 379.18644133 -108.85667987 385.57237396 -116.73144531 391.96582031 C-118.80156555 393.64664589 -120.87153761 395.32765366 -122.94140625 397.00878906 C-123.60954346 397.55140381 -124.27768066 398.09401855 -124.96606445 398.65307617 C-128.81921002 401.78378677 -132.66482482 404.92335028 -136.50390625 408.07128906 C-141.51249535 412.17544401 -146.5629214 416.2257816 -151.62890625 420.25878906 C-151.48453125 420.85304688 -151.34015625 421.44730469 -151.19140625 422.05957031 C-148.2446959 435.21745058 -149.4026732 445.22936956 -156.25 457.05957031 C-161.77778659 464.89357325 -169.99549649 469.57583199 -179.26171875 471.92675781 C-190.11959893 473.4497278 -199.5952612 471.41952244 -208.53125 464.97363281 C-215.7297724 459.08880724 -220.03363321 452.22862677 -222.62890625 443.25878906 C-222.7578125 439.89160156 -222.7578125 439.89160156 -222.62890625 437.25878906 C-223.50933594 437.17757813 -224.38976562 437.09636719 -225.296875 437.01269531 C-231.35567495 436.14065277 -237.12701433 434.04868881 -242.94140625 432.19628906 C-244.23874055 431.78747695 -245.53627001 431.37928371 -246.83398438 430.97167969 C-249.48708886 430.13811331 -252.13950002 429.3023928 -254.79150391 428.46533203 C-260.3947688 426.6999246 -266.0119809 424.98013302 -271.62890625 423.25878906 C-273.74487311 422.60801214 -275.86075753 421.95696712 -277.9765625 421.30566406 C-281.45131868 420.23618633 -284.92630915 419.16749365 -288.40185547 418.10058594 C-291.65762475 417.10107258 -294.91244827 416.09852528 -298.16674805 415.09423828 C-300.00185226 414.52868374 -301.83782517 413.96595035 -303.67382812 413.40332031 C-309.94505329 411.46552238 -316.10708468 409.40190866 -322.21118164 406.984375 C-324.8451832 406.19388195 -326.89401364 406.01280103 -329.62890625 406.25878906 C-331.85659391 407.85122751 -331.85659391 407.85122751 -333.87890625 410.00878906 C-342.48340812 417.92549225 -349.93247862 419.05239019 -361.359375 418.66894531 C-365.67822947 418.37663547 -369.10835419 417.33762336 -372.8046875 415.03613281 C-375.5661015 413.85942749 -376.79573594 414.23480036 -379.62890625 415.25878906 C-382.26064361 417.03927405 -384.65099294 419.07310312 -387.06640625 421.13378906 C-388.5017497 422.33012748 -389.9379627 423.52542332 -391.375 424.71972656 C-392.09155762 425.31881836 -392.80811523 425.91791016 -393.54638672 426.53515625 C-396.52796444 429.00290991 -399.57286524 431.38436829 -402.62890625 433.75878906 C-407.67839538 437.69939624 -412.66645363 441.70919 -417.62890625 445.75878906 C-424.33052598 451.22526505 -431.09975738 456.59722968 -437.91552734 461.92041016 C-447.65347911 469.52705758 -457.33560266 477.20051522 -466.97460938 484.93212891 C-469.97671051 487.33965807 -472.98284044 489.74215034 -475.98828125 492.14550781 C-478.02051532 493.77189633 -480.05160363 495.39967926 -482.08203125 497.02832031 C-491.68837793 504.72969022 -501.35119211 512.35604911 -511.0546875 519.93457031 C-512.20466097 520.83401094 -513.35439994 521.73375146 -514.50390625 522.63378906 C-515.35384155 523.29918701 -515.35384155 523.29918701 -516.22094727 523.97802734 C-521.58283084 528.19216907 -526.8660624 532.50186822 -532.12451172 536.84423828 C-532.75502441 537.36131348 -533.38553711 537.87838867 -534.03515625 538.41113281 C-534.63730957 538.91064453 -535.23946289 539.41015625 -535.85986328 539.92480469 C-537.62890625 541.25878906 -537.62890625 541.25878906 -541.08984375 543.03613281 C-543.77761725 544.93327386 -543.77761725 544.93327386 -544.03027344 547.27905273 C-544.07723663 549.83724209 -543.94222227 552.33230536 -543.75390625 554.88378906 C-543.38207571 565.76298772 -544.72298838 572.10530678 -551.87890625 580.57128906 C-559.95684663 588.97867236 -568.82413975 593.24057367 -580.56640625 593.69628906 C-592.46141166 593.31552705 -601.01966089 587.96522921 -609.22265625 579.64160156 C-615.12403923 572.40880901 -617.3562041 561.95912833 -616.9453125 552.81347656 C-615.6527333 542.37709638 -610.06056522 533.42982447 -601.94140625 526.83300781 C-593.10624461 520.81853122 -584.21435801 518.87649639 -573.62890625 520.25878906 C-570.60898346 521.1533072 -567.80266242 522.18644015 -564.93359375 523.48144531 C-562.23062309 524.39312525 -561.28733158 524.16633675 -558.62890625 523.25878906 C-556.93111312 522.1734711 -556.93111312 522.1734711 -555.3359375 520.77441406 C-554.71468994 520.2582251 -554.09344238 519.74203613 -553.45336914 519.21020508 C-552.78942139 518.64873779 -552.12547363 518.08727051 -551.44140625 517.50878906 C-545.78460422 512.8128578 -540.06122729 508.24801307 -534.19140625 503.82128906 C-527.56457029 498.80718877 -521.12527826 493.60211086 -514.73608398 488.28955078 C-509.45399669 483.90736556 -504.06294734 479.70310595 -498.6015625 475.54785156 C-494.82876918 472.64265198 -491.16074651 469.62113486 -487.48828125 466.59082031 C-484.33772002 464.02130521 -481.14545701 461.51097456 -477.94140625 459.00878906 C-472.76538911 454.96551732 -467.65221693 450.85236995 -462.56640625 446.69628906 C-456.72833413 441.93003141 -450.81710491 437.28261609 -444.828125 432.70800781 C-435.59678392 425.65609187 -426.54115884 418.3926458 -417.54443359 411.04492188 C-412.23684639 406.72271498 -406.84458211 402.52566427 -401.3984375 398.37988281 C-400.48449219 397.67992187 -399.57054687 396.97996094 -398.62890625 396.25878906 C-397.68402344 395.67226563 -396.73914063 395.08574219 -395.765625 394.48144531 C-393.24484481 392.3261658 -393.24484481 392.3261658 -393.31640625 388.57128906 C-393.40472717 387.13272855 -393.50973994 385.6951234 -393.62890625 384.25878906 C-394.03167345 373.98822534 -391.53226568 366.43185676 -384.94140625 358.38378906 C-377.29038499 350.44459375 -368.5726003 346.30907335 -357.62890625 346.00878906 C-346.65413113 346.27728509 -337.76497831 350.40637437 -329.74609375 357.85644531 C-323.77325303 364.63374613 -320.92677144 372.32283336 -320.62890625 381.25878906 C-319.61828125 381.37609375 -318.60765625 381.49339844 -317.56640625 381.61425781 C-313.69109625 382.24860915 -310.32514792 383.26220347 -306.62890625 384.57128906 C-301.70763026 386.27471418 -296.80595091 387.7882301 -291.75390625 389.07128906 C-282.66291975 391.42075287 -273.76815655 394.36082832 -264.83984375 397.25878906 C-252.6099515 401.21725193 -240.28838137 404.85418119 -227.94335938 408.43457031 C-226.79673828 408.77101563 -225.65011719 409.10746094 -224.46875 409.45410156 C-223.44128662 409.7533252 -222.41382324 410.05254883 -221.35522461 410.36083984 C-218.96002111 411.14973198 -216.84053297 412.05869178 -214.62890625 413.25878906 C-214.37238281 412.66066406 -214.11585938 412.06253906 -213.8515625 411.44628906 C-211.71536767 407.62434304 -208.23715093 405.60980563 -204.62890625 403.25878906 C-203.99210937 402.83855469 -203.3553125 402.41832031 -202.69921875 401.98535156 C-195.37055324 397.96456621 -186.7353321 398.55883663 -178.62890625 399.25878906 C-176.95804147 399.91486308 -175.29031388 400.5791223 -173.62890625 401.25878906 C-170.36209434 400.79865123 -168.49959019 399.59774548 -166.01171875 397.48535156 C-165.32948242 396.91341064 -164.64724609 396.34146973 -163.94433594 395.75219727 C-162.86007324 394.82733521 -162.86007324 394.82733521 -161.75390625 393.88378906 C-160.22117967 392.59728822 -158.68730981 391.31214833 -157.15234375 390.02832031 C-156.38889648 389.38846191 -155.62544922 388.74860352 -154.83886719 388.08935547 C-151.73506496 385.51839777 -148.56474216 383.03929225 -145.37890625 380.57128906 C-140.3137349 376.63330884 -135.39516623 372.55595851 -130.52246094 368.38305664 C-126.63586142 365.07026611 -122.66117807 361.8920936 -118.62890625 358.75878906 C-113.38612392 354.6842196 -108.28268264 350.47762929 -103.23339844 346.16625977 C-99.37805912 342.87819268 -95.45446958 339.69543063 -91.484375 336.54785156 C-87.69120911 333.50709204 -83.94151246 330.41490186 -80.19140625 327.32128906 C-79.45229004 326.7115625 -78.71317383 326.10183594 -77.95166016 325.47363281 C-76.50404488 324.27932613 -75.05645305 323.08499102 -73.60888672 321.890625 C-69.29295446 318.33357307 -64.9601924 314.79711667 -60.62890625 311.25878906 C-58.79545589 309.75893211 -56.96212454 308.25892966 -55.12890625 306.75878906 C-54.21496094 306.01113281 -53.30101562 305.26347656 -52.359375 304.49316406 C-50.5906783 303.04581855 -48.82242082 301.59793606 -47.0546875 300.14941406 C-27.07231355 283.78119145 -27.07231355 283.78119145 -17.69140625 276.32128906 C-13.15205841 272.7020793 -8.67105224 269.01387802 -4.19140625 265.32128906 C-3.45857422 264.71792725 -2.72574219 264.11456543 -1.97070312 263.49291992 C1.30850638 260.7913817 4.5832801 258.08525409 7.83984375 255.35644531 C8.81953125 254.54046875 9.79921875 253.72449219 10.80859375 252.88378906 C11.65292969 252.17480469 12.49726562 251.46582031 13.3671875 250.73535156 C15.37109375 249.25878906 15.37109375 249.25878906 17.37109375 249.25878906 C17.04882812 248.40800781 16.7265625 247.55722656 16.39453125 246.68066406 C13.96466025 238.55636254 14.31497815 229.35728612 17.9140625 221.63769531 C22.37684915 214.35126886 28.50747209 207.84173418 36.37109375 204.25878906 C37.03109375 204.25878906 37.69109375 204.25878906 38.37109375 204.25878906 C38.37109375 199.63878906 38.37109375 195.01878906 38.37109375 190.25878906 C36.77305908 190.28497314 35.17502441 190.31115723 33.52856445 190.33813477 C27.54807774 190.42925781 21.56765127 190.48626376 15.58666992 190.53344727 C13.00778858 190.55845049 10.42897709 190.59246436 7.8503418 190.63598633 C4.12400993 190.69726282 0.39862223 190.72514249 -3.328125 190.74707031 C-5.03206673 190.78577995 -5.03206673 190.78577995 -6.77043152 190.82527161 C-20.33718193 190.82992871 -31.05564327 185.7567711 -40.59375 176.31347656 C-50.20202932 165.95359823 -53.10045221 153.57850685 -53.01708984 139.70385742 C-53.0223468 138.60640701 -53.02760376 137.5089566 -53.03302002 136.37825012 C-53.0461215 132.78489549 -53.03751734 129.19199121 -53.02734375 125.59863281 C-53.02936716 123.08240169 -53.03228082 120.56617114 -53.03604126 118.04994202 C-53.04045115 112.79065433 -53.03436636 107.53148174 -53.02001953 102.2722168 C-53.00368876 96.21623788 -53.00899358 90.16056198 -53.02549875 84.10459036 C-53.04081953 78.24568758 -53.03911389 72.38689878 -53.03035355 66.52798653 C-53.02835987 64.0493929 -53.0307814 61.57079147 -53.03779221 59.09220695 C-53.04545434 55.62270814 -53.03373566 52.15378255 -53.01708984 48.68432617 C-53.02316254 47.67157623 -53.02923523 46.65882629 -53.03549194 45.61538696 C-52.92621145 33.25192569 -48.89439047 23.22177441 -40.59375 13.99707031 C-28.82382566 2.7825326 -15.69740382 -0.05524207 0 0 Z " fill="#030303" transform="translate(747.62890625,192.7412109375)"/>
<path d="M0 0 C1.06108978 -0.00852997 2.12217957 -0.01705994 3.21542358 -0.02584839 C4.37444687 -0.02494202 5.53347015 -0.02403564 6.72761536 -0.02310181 C7.95244629 -0.02981903 9.17727722 -0.03653625 10.43922424 -0.04345703 C13.79699843 -0.05920404 17.15452525 -0.06581245 20.51231933 -0.0670886 C22.61299365 -0.06851155 24.71364217 -0.07278399 26.81431007 -0.07808304 C34.1514767 -0.09658655 41.4885707 -0.10475375 48.82575989 -0.10317993 C55.65019603 -0.10198027 62.474315 -0.12304692 69.29867095 -0.15466726 C75.16807317 -0.18088731 81.03737223 -0.19154475 86.90683252 -0.19026911 C90.40764884 -0.18976091 93.9081836 -0.1953642 97.40894127 -0.21662521 C101.31997727 -0.23972871 105.2305849 -0.23045168 109.14167786 -0.21841431 C110.29057999 -0.22965332 111.43948212 -0.24089233 112.62319946 -0.25247192 C120.38215838 -0.19193398 126.84943297 0.97477068 132.91438293 6.08383179 C133.35782043 6.66004272 133.80125793 7.23625366 134.25813293 7.82992554 C134.72219543 8.4087146 135.18625793 8.98750366 135.66438293 9.58383179 C137.62944299 12.60862065 137.88757231 15.24729771 137.91203308 18.75038147 C137.92063354 19.66850113 137.92923401 20.58662079 137.93809509 21.53256226 C137.94448502 23.04040283 137.94448502 23.04040283 137.95100403 24.57870483 C137.96327026 26.16942558 137.96327026 26.16942558 137.9757843 27.7922821 C138.00063631 31.30873041 138.01715456 34.82513834 138.03157043 38.34164429 C138.03689411 39.54248972 138.04221779 40.74333515 138.04770279 41.98056984 C138.07443444 48.33749376 138.09380871 54.69439805 138.10823059 61.05136108 C138.12487181 67.61418961 138.16964599 74.17651534 138.22060204 80.73915386 C138.25427521 85.78784251 138.26580821 90.83641187 138.27145767 95.88520241 C138.27817061 98.30408378 138.29339363 100.72295729 138.31734848 103.14172935 C138.34900047 106.53129283 138.34903588 109.91950085 138.34162903 113.30917358 C138.35803436 114.30427948 138.3744397 115.29938538 138.39134216 116.324646 C138.33274982 122.89085479 136.9622404 127.17197863 132.75813293 132.26742554 C128.09761754 136.69491516 123.72592562 138.50754915 117.32008362 138.54830933 C115.70114449 138.56543976 115.70114449 138.56543976 114.04949951 138.58291626 C112.87537003 138.58515198 111.70124054 138.5873877 110.49153137 138.58969116 C109.24704727 138.59962097 108.00256317 138.60955078 106.72036743 138.61978149 C103.31308033 138.64395511 99.906038 138.65890341 96.49869442 138.66780281 C94.36669049 138.67367779 92.23470775 138.68188993 90.10271454 138.69081116 C83.42264116 138.7181405 76.74261657 138.73748348 70.06249118 138.74521494 C62.36887297 138.75417003 54.67596655 138.78924401 46.98256469 138.84721613 C41.02397151 138.89054677 35.06557788 138.91062862 29.10682893 138.91329718 C25.55332407 138.91538656 22.00048921 138.92705425 18.44715118 138.9629364 C14.47864169 139.00223343 10.51101143 138.99328227 6.54231262 138.98031616 C5.37628006 138.99874573 4.2102475 139.01717529 3.00888062 139.03616333 C-4.5350699 138.95911493 -9.77345947 137.67892828 -15.24186707 132.26742554 C-19.79260538 126.53121038 -19.8166114 120.32341123 -19.75944519 113.26498413 C-19.76995911 111.65371895 -19.76995911 111.65371895 -19.78068542 110.00990295 C-19.79821384 106.47828922 -19.78666195 102.94748415 -19.77311707 99.41586304 C-19.77581304 96.95302172 -19.77969635 94.49018144 -19.78471375 92.02734375 C-19.7906015 86.87452017 -19.78206722 81.72197455 -19.76335144 76.56918335 C-19.74053884 69.96707279 -19.75370491 63.36561187 -19.7776413 56.76352501 C-19.79209802 51.68142809 -19.78749416 46.59948514 -19.77713013 41.51738358 C-19.77446377 39.08293201 -19.77772938 36.64846641 -19.78704834 34.21403122 C-19.79721398 30.81267007 -19.78171208 27.41236074 -19.75944519 24.01107788 C-19.76754211 23.00728592 -19.77563904 22.00349396 -19.78398132 20.96928406 C-19.70061036 14.09032388 -18.52107098 10.64500557 -13.67936707 5.65805054 C-9.0083234 1.95167893 -6.00544263 0.02185099 0 0 Z " fill="#FDFDFD" transform="translate(740.2418670654297,218.73257446289063)"/>
<path d="M0 0 C4.76961565 2.80877366 7.70974301 5.60830317 9.140625 11.08984375 C10.05512027 16.21629319 9.51872394 19.74428361 6.921875 24.26171875 C4.17116993 28.01937836 1.076677 30.56558683 -3.390625 32.0546875 C-8.35922815 32.57634807 -12.24581479 32.6270926 -16.765625 30.3671875 C-21.04650979 26.59593186 -23.91390015 23.40801342 -24.734375 17.63671875 C-25.04495228 12.13173648 -24.81199088 8.77544769 -21.140625 4.4921875 C-15.36149007 -1.44747896 -7.87272515 -3.11307106 0 0 Z " fill="#040404" transform="translate(844.390625,270.9453125)"/>
<path d="M0 0 C4.71145125 2.11750618 7.59658788 4.46711546 9.7109375 9.3125 C10.51427011 15.50831819 10.44283607 21.087842 6.7109375 26.3125 C2.50043535 30.53450625 -1.1241383 32.45054369 -7.1015625 32.625 C-11.9552106 32.56848008 -14.57076196 31.58814572 -18.2890625 28.3125 C-23.01063708 22.9528748 -23.80748673 19.51974037 -23.7734375 12.4375 C-22.98981452 7.38186789 -20.21502059 4.42453995 -16.2890625 1.3125 C-11.30921876 -1.73966229 -5.51224763 -1.6555556 0 0 Z " fill="#030303" transform="translate(769.2890625,270.6875)"/>
</svg>
